<svg xmlns="http://www.w3.org/2000/svg" viewBox="0 0 28.46 28.57"><path d="M28.13 5.18A12.2 12.2 0 0 0 26 2.45 13.22 13.22 0 0 0 23.32.36 2.75 2.75 0 0 0 22 0a2.83 2.83 0 0 0-2 .83L1.81 19.11a2.77 2.77 0 0 0-.75 1.37l-1 4.43a3 3 0 0 0 3.59 3.58l4.55-1a2.81 2.81 0 0 0 1.37-.75L27.64 8.48a2.81 2.81 0 0 0 .49-3.3zM3.22 26.54a.83.83 0 0 1-.22 0 1 1 0 0 1-1-1.22l.73-3.27A16.37 16.37 0 0 0 4.38 24a17.44 17.44 0 0 0 2.18 1.83zm5.3-1.61l.11-.19a13.27 13.27 0 0 1-2.84-2.22 12.21 12.21 0 0 1-2-2.54L18 5.62a13.74 13.74 0 0 1 2.64 2.09 12.13 12.13 0 0 1 2.17 2.79zm17.7-17.86L24.28 9a15 15 0 0 0-2.21-2.74 16.89 16.89 0 0 0-2.6-2.13l1.91-1.92A.8.8 0 0 1 22 2a.76.76 0 0 1 .39.1 11.3 11.3 0 0 1 2.27 1.77 10.14 10.14 0 0 1 1.76 2.26.81.81 0 0 1-.2.94z"/></svg>